Coordinates
version=1
nRows=14
nColumns=40
inDegrees=yes

Units are S.I. units (second, meters, Newtons, ...)
If the header above contains a line with 'inDegrees', this indicates whether rotational values are in degrees (yes) or radians (no).

endheader
time	pelvis_tilt	pelvis_list	pelvis_rotation	pelvis_tx	pelvis_ty	pelvis_tz	hip_flexion_r	hip_adduction_r	hip_rotation_r	knee_angle_r	knee_angle_r_beta	ankle_angle_r	subtalar_angle_r	mtp_angle_r	hip_flexion_l	hip_adduction_l	hip_rotation_l	knee_angle_l	knee_angle_l_beta	ankle_angle_l	subtalar_angle_l	mtp_angle_l	lumbar_extension	lumbar_bending	lumbar_rotation	arm_flex_r	arm_add_r	arm_rot_r	elbow_flex_r	pro_sup_r	wrist_flex_r	wrist_dev_r	arm_flex_l	arm_add_l	arm_rot_l	elbow_flex_l	pro_sup_l	wrist_flex_l	wrist_dev_l
      3.85000000	      5.12616406	     -1.72952917	     -7.18833083	     -0.22196189	      0.98034071	     -0.87927884	     10.01995171	    -12.76568070	      0.35443538	     40.66029208	      0.70965597	     16.02747677	      0.00000000	      0.00000000	      5.35486288	    -19.27658226	    -16.10108898	     40.60961174	      0.70877143	     17.14861317	      0.00000000	      0.00000000	    -14.23778218	     -0.48702811	      1.11355420	    -56.46535074	    -36.67539200	      0.81738212	    116.92284764	     87.54025410	      0.00000000	      0.00000000	    -43.69643938	    -52.92425825	     24.26410818	    107.51102835	     88.19533067	      0.00000000	      0.00000000
      3.85500000	      4.60699173	     -1.61919436	     -7.15928311	     -0.22654766	      0.96407590	     -0.87917454	     12.00334702	    -13.01201691	      0.51586203	     43.79018974	      0.76428299	     20.91263774	      0.00000000	      0.00000000	      7.03941606	    -19.56561523	    -15.17391708	     42.92152507	      0.74912193	     21.98766342	      0.00000000	      0.00000000	    -14.64778686	     -0.70794313	      1.24820231	    -56.36649936	    -36.38371888	      0.75667195	    116.80173746	     87.59139905	      0.00000000	      0.00000000	    -43.49918977	    -53.17123948	     24.17763638	    107.66928903	     88.21114613	      0.00000000	      0.00000000
      3.86000000	      3.86261242	     -1.48306409	     -7.16450611	     -0.23196227	      0.94778292	     -0.87927573	     14.40682874	    -13.22796899	      0.86157819	     46.91751434	      0.81886510	     25.04061935	      0.00000000	      0.00000000	      9.12974592	    -19.83744855	    -13.87352710	     45.45950595	      0.79341806	     25.92203336	      0.00000000	      0.00000000	    -14.90059359	     -0.90687123	      1.36313517	    -56.26026161	    -36.21079385	      0.64868126	    116.81803943	     87.58640563	      0.00000000	      0.00000000	    -43.23364465	    -53.40669446	     24.12309244	    107.79054179	     88.20080192	      0.00000000	      0.00000000
      3.86500000	      2.75159492	     -1.11389844	     -7.11904461	     -0.23770123	      0.93152551	     -0.87948242	     17.33863339	    -13.63115620	      1.36554096	     50.04228303	      0.87340260	     28.67362317	      0.00000000	      0.00000000	     11.67537764	    -19.80002615	    -12.65712957	     48.16558115	      0.84064798	     29.61050986	      0.00000000	      0.00000000	    -14.78361477	     -1.30704844	      1.41787947	    -55.97395379	    -36.01458578	      0.77191043	    116.62968597	     87.27456567	      0.00000000	      0.00000000	    -42.82196435	    -53.73578910	     24.20160611	    107.80411954	     88.31037972	      0.00000000	      0.00000000
      3.87000000	      1.45076339	     -0.92707918	     -7.04982201	     -0.24391111	      0.91598246	     -0.87928769	     20.45589067	    -13.65994219	      2.21153641	     53.15726438	      0.92776928	     31.60202540	      0.00000000	      0.00000000	     15.21703347	    -20.15648000	    -11.15568689	     52.19309173	      0.91094130	     32.43523759	      0.00000000	      0.00000000	    -14.54774082	     -1.54116333	      1.46240774	    -55.48420328	    -35.83635193	      1.02628395	    116.28421167	     87.59141838	      0.00000000	      0.00000000	    -42.30997443	    -54.06089097	     24.47420241	    107.67836018	     88.20420807	      0.00000000	      0.00000000
      3.87500000	     -0.08652791	     -0.87731837	     -7.02286183	     -0.25049986	      0.90018401	     -0.87879745	     23.92072759	    -13.39239443	      3.15084234	     56.44959333	      0.98523127	     33.77531548	      0.00000000	      0.00000000	     19.29540094	    -20.94121664	     -9.84824421	     56.20562679	      0.98097325	     34.18802488	      0.00000000	      0.00000000	    -14.08305965	     -1.60331609	      1.60020054	    -55.13033720	    -35.63080297	      1.06086692	    116.04143767	     87.67745906	      0.00000000	      0.00000000	    -41.78245469	    -54.43409956	     24.76518450	    107.60282920	     88.20200447	      0.00000000	      0.00000000
      3.88000000	     -1.24458265	     -0.83804588	     -7.09901569	     -0.25696019	      0.88516731	     -0.87828264	     27.36670755	    -13.16134546	      4.04859896	     60.24997821	      1.05156049	     35.47523707	      0.00000000	      0.00000000	     23.10846827	    -21.77351195	     -8.80275601	     60.14548557	      1.04973675	     35.12381301	      0.00000000	      0.00000000	    -14.06019510	     -1.72116418	      1.74572372	    -54.79115986	    -35.80708144	      1.24476169	    116.08700466	     87.63744752	      0.00000000	      0.00000000	    -41.44246810	    -54.95420641	     25.04132412	    107.85925952	     88.17083292	      0.00000000	      0.00000000
      3.88500000	     -2.62537512	     -1.07017570	     -6.94884638	     -0.26318618	      0.87026923	     -0.87806646	     30.97690379	    -12.74179028	      4.61260992	     63.86200695	      1.11460229	     36.22505205	      0.00000000	      0.00000000	     27.53190336	    -22.65018386	     -7.06102246	     64.29867729	      1.12222362	     35.24515836	      0.00000000	      0.00000000	    -13.83467364	     -1.45050265	      1.84985528	    -54.54333145	    -35.67385934	      1.14862480	    115.87815203	     87.72013574	      0.00000000	      0.00000000	    -40.78434044	    -55.27893431	     25.58908416	    107.83811335	     88.20976768	      0.00000000	      0.00000000
      3.89000000	     -3.54000790	     -1.10239755	     -6.96246966	     -0.26967465	      0.85615879	     -0.87778754	     34.24711109	    -12.55655215	      5.29108535	     67.36225949	      1.17569322	     36.83393763	      0.00000000	      0.00000000	     31.17347497	    -23.33052848	     -5.97314775	     68.04095233	      1.18753864	     35.65085818	      0.00000000	      0.00000000	    -14.11647447	     -1.49161975	      1.94257842	    -54.30529203	    -36.03800766	      1.29358405	    116.15340454	     87.71093034	      0.00000000	      0.00000000	    -40.37864642	    -55.89531129	     25.95236686	    108.39549038	     88.18953876	      0.00000000	      0.00000000
      3.89500000	     -4.56383373	     -1.17958631	     -6.81421009	     -0.27562324	      0.84231459	     -0.87779939	     37.49075645	    -12.42301075	      5.68474170	     70.71961914	      1.23429020	     36.71602484	      0.00000000	      0.00000000	     34.92548067	    -23.93868096	     -4.73660238	     71.64778908	      1.25048982	     35.45236360	      0.00000000	      0.00000000	    -14.29256275	     -1.40733235	      2.09368011	    -54.46115356	    -35.92829199	      0.98292870	    116.20034003	     87.78630464	      0.00000000	      0.00000000	    -39.54822380	    -56.42599109	     26.84657972	    108.58838037	     88.20688858	      0.00000000	      0.00000000
      3.90000000	     -5.36455163	     -1.04436429	     -6.80979961	     -0.28087280	      0.82918891	     -0.87762967	     40.40904657	    -12.59849585	      5.95981183	     73.77472850	      1.28761192	     37.36881778	      0.00000000	      0.00000000	     37.89168922	    -24.39550794	     -4.10967173	     74.70744528	      1.30389090	     35.86319993	      0.00000000	      0.00000000	    -14.58567320	     -1.63486691	      2.11378477	    -54.37744245	    -36.27895832	      1.14940875	    116.37645632	     87.77182543	      0.00000000	      0.00000000	    -39.21452807	    -57.02466222	     27.40832234	    109.09083760	     88.18049730	      0.00000000	      0.00000000
      3.90500000	     -6.23107798	     -1.07565869	     -6.59220237	     -0.28632910	      0.81627999	     -0.87784571	     43.20677238	    -12.81600928	      5.85070500	     76.60762788	      1.33705534	     37.39821339	      0.00000000	      0.00000000	     40.91080154	    -24.84583431	     -3.17382746	     77.53490548	      1.35323939	     36.07886751	      0.00000000	      0.00000000	    -14.91595726	     -1.60585152	      2.08116004	    -54.53388136	    -36.41876831	      1.10154573	    116.58414067	     87.86689079	      0.00000000	      0.00000000	    -38.55158320	    -57.54122898	     28.28366285	    109.46413958	     88.20124890	      0.00000000	      0.00000000
      3.91000000	     -6.79389400	     -0.84715459	     -6.49213191	     -0.29110552	      0.80418740	     -0.87786040	     45.55478662	    -13.28819131	      5.89962410	     79.13751799	      1.38121025	     37.86305014	      0.00000000	      0.00000000	     43.06573428	    -25.12397309	     -2.78871199	     79.80802733	      1.39291285	     36.81614540	      0.00000000	      0.00000000	    -15.41360919	     -1.93593564	      1.99354709	    -54.53372356	    -36.96330063	      1.33079265	    116.98298173	     87.88215007	      0.00000000	      0.00000000	    -38.25083625	    -58.34127810	     28.97106906	    110.18778700	     88.21696740	      0.00000000	      0.00000000
      3.91500000	     -7.44934916	     -0.84860209	     -6.34538114	     -0.29572086	      0.79260862	     -0.87775608	     47.73147696	    -13.64447673	      5.66984614	     81.41486444	      1.42095744	     38.12453613	      0.00000000	      0.00000000	     45.28799486	    -25.60030855	     -2.22306281	     81.86719740	      1.42885214	     37.40856621	      0.00000000	      0.00000000	    -15.81910809	     -1.92020163	      2.98422288	    -55.70336066	    -36.12603907	      0.25037464	    117.29123082	     87.85172698	      0.00000000	      0.00000000	    -34.62590495	    -59.98047526	     33.01026926	    110.42566677	     88.18321939	      0.00000000	      0.00000000
